<mxfile host="65bd71144e">
    <diagram id="N9yBZ6DVG18FfWYZrw34" name="Page-1">
        <mxGraphModel dx="983" dy="798" grid="1" gridSize="10" guides="1" tooltips="1" connect="1" arrows="1" fold="1" page="1" pageScale="1" pageWidth="850" pageHeight="1100" background="#FFFFFF" math="0" shadow="0">
            <root>
                <mxCell id="0"/>
                <mxCell id="1" parent="0"/>
                <mxCell id="53" value="" style="rounded=0;whiteSpace=wrap;html=1;fillColor=none;" parent="1" vertex="1">
                    <mxGeometry x="530" y="170" width="230" height="80" as="geometry"/>
                </mxCell>
                <mxCell id="54" value="Shared memory" style="edgeStyle=orthogonalEdgeStyle;rounded=0;orthogonalLoop=1;jettySize=auto;html=1;exitX=0.25;exitY=0;exitDx=0;exitDy=0;entryX=0.25;entryY=1;entryDx=0;entryDy=0;fontSize=15;startArrow=classic;startFill=1;" parent="1" source="34" target="45" edge="1">
                    <mxGeometry y="68" relative="1" as="geometry">
                        <mxPoint x="1" as="offset"/>
                    </mxGeometry>
                </mxCell>
                <mxCell id="34" value="QNPU" style="rounded=1;whiteSpace=wrap;html=1;horizontal=1;verticalAlign=top;fontSize=18;" parent="1" vertex="1">
                    <mxGeometry x="140" y="200" width="270" height="230" as="geometry"/>
                </mxCell>
                <mxCell id="35" value="Classical&lt;br&gt;processor" style="rounded=0;whiteSpace=wrap;html=1;" parent="1" vertex="1">
                    <mxGeometry x="222.5" y="240" width="105" height="40" as="geometry"/>
                </mxCell>
                <mxCell id="36" value="Classical&lt;br&gt;memory" style="rounded=0;whiteSpace=wrap;html=1;" parent="1" vertex="1">
                    <mxGeometry x="160" y="310" width="80" height="40" as="geometry"/>
                </mxCell>
                <mxCell id="48" style="edgeStyle=orthogonalEdgeStyle;rounded=0;orthogonalLoop=1;jettySize=auto;html=1;exitX=1;exitY=0.5;exitDx=0;exitDy=0;dashed=1;strokeWidth=3;fillColor=#008a00;strokeColor=#005700;startArrow=classic;startFill=1;" parent="1" source="37" edge="1">
                    <mxGeometry relative="1" as="geometry">
                        <mxPoint x="480" y="330" as="targetPoint"/>
                    </mxGeometry>
                </mxCell>
                <mxCell id="37" value="Quantum&lt;br&gt;network stack" style="rounded=0;whiteSpace=wrap;html=1;" parent="1" vertex="1">
                    <mxGeometry x="300" y="310" width="90" height="40" as="geometry"/>
                </mxCell>
                <mxCell id="49" style="edgeStyle=orthogonalEdgeStyle;rounded=0;orthogonalLoop=1;jettySize=auto;html=1;exitX=1;exitY=0.5;exitDx=0;exitDy=0;dashed=1;strokeWidth=3;fillColor=#d80073;strokeColor=#A50040;startArrow=classic;startFill=1;dashPattern=1 2;" parent="1" source="38" edge="1">
                    <mxGeometry relative="1" as="geometry">
                        <mxPoint x="480" y="390" as="targetPoint"/>
                    </mxGeometry>
                </mxCell>
                <mxCell id="38" value="Quantum&lt;br&gt;processor" style="rounded=0;whiteSpace=wrap;html=1;" parent="1" vertex="1">
                    <mxGeometry x="235" y="370" width="80" height="40" as="geometry"/>
                </mxCell>
                <mxCell id="47" style="edgeStyle=none;rounded=0;orthogonalLoop=1;jettySize=auto;html=1;exitX=1;exitY=0.5;exitDx=0;exitDy=0;startArrow=classic;startFill=1;dashed=1;fillColor=#008a00;strokeWidth=3;strokeColor=#005700;" parent="1" source="45" edge="1">
                    <mxGeometry relative="1" as="geometry">
                        <mxPoint x="480" y="110" as="targetPoint"/>
                    </mxGeometry>
                </mxCell>
                <mxCell id="45" value="Application layer" style="rounded=1;whiteSpace=wrap;html=1;fontSize=18;" parent="1" vertex="1">
                    <mxGeometry x="140" y="80" width="270" height="60" as="geometry"/>
                </mxCell>
                <mxCell id="51" value="Classical communciation&lt;br&gt;channel" style="edgeStyle=none;rounded=0;orthogonalLoop=1;jettySize=auto;html=1;exitX=1;exitY=0.5;exitDx=0;exitDy=0;startArrow=classic;startFill=1;dashed=1;fillColor=#008a00;strokeWidth=3;strokeColor=#005700;" parent="1" edge="1">
                    <mxGeometry x="1" y="70" relative="1" as="geometry">
                        <mxPoint x="610" y="189.57999999999998" as="targetPoint"/>
                        <mxPoint x="540" y="189.57999999999998" as="sourcePoint"/>
                        <mxPoint x="70" y="70" as="offset"/>
                    </mxGeometry>
                </mxCell>
                <mxCell id="52" value="Quantum communication&lt;br&gt;channel" style="edgeStyle=none;rounded=0;orthogonalLoop=1;jettySize=auto;html=1;exitX=1;exitY=0.5;exitDx=0;exitDy=0;startArrow=classic;startFill=1;dashed=1;fillColor=#d80073;strokeWidth=3;strokeColor=#A50040;dashPattern=1 2;" parent="1" edge="1">
                    <mxGeometry x="1" y="70" relative="1" as="geometry">
                        <mxPoint x="610" y="230.00000000000006" as="targetPoint"/>
                        <mxPoint x="540" y="230.00000000000006" as="sourcePoint"/>
                        <mxPoint x="70" y="70" as="offset"/>
                    </mxGeometry>
                </mxCell>
                <mxCell id="55" value="NetQASM" style="edgeStyle=none;rounded=0;orthogonalLoop=1;jettySize=auto;html=1;exitX=0.5;exitY=1;exitDx=0;exitDy=0;entryX=0.5;entryY=0;entryDx=0;entryDy=0;startArrow=classic;startFill=1;fontSize=14;" parent="1" edge="1">
                    <mxGeometry y="35" relative="1" as="geometry">
                        <mxPoint as="offset"/>
                        <mxPoint x="315" y="140" as="sourcePoint"/>
                        <mxPoint x="315" y="200" as="targetPoint"/>
                    </mxGeometry>
                </mxCell>
            </root>
        </mxGraphModel>
    </diagram>
</mxfile>